
<global>
amp_veltrack=0
ampeg_release=0.85
</global>

<group>
group_label=Group_0-42
lpc_hicc1=42
lpc_locc1=0

<region>
hikey=B3
hivel=127
lokey=A#3
lovel=0
lpc=ZqE2QhGtIMN9F2RDqdgew9v8ZkILScnBuJ2kQWUrhMAwh4O/9f0cwfThX0F3PtTAZhWgv7MIgEAYOw/AQ7aRv88XwD8MoXW+mEocQAaJR8ApzPK/+nWgQJB0LcBn69o+
lpc_rms=-48.27
pitch_keycenter=A#3
sample=Trumpet_Marcato_Eighth_PP_A#3.opus
tune=+1
</region>

<region>
hikey=B4
hivel=127
lokey=A#4
lovel=0
lpc=W81oQpYFYsMYi8RD+g7Nwy/Hl0NhQTvDBVDPQiEoTcI5Z/tBk/XVwQq2f0Gp8DzAbZGwvruubMDeCidBkLaNwV8ob0Eh6IRA0cG+wZ0b0EFO10vBTZfUPy6Pib7ffXw/
lpc_rms=-39.52
pitch_keycenter=A#4
sample=Trumpet_Marcato_Eighth_PP_A#4.opus
tune=-17
</region>

<region>
hikey=B5
hivel=127
lokey=A#5
lovel=0
lpc=DISBQvedKcMAGWlDE5NYw6IIIUMP5d/CkWeeQngQRcIAotRBRceXwQzbkEFf2DrAO+Orwd4EAkIugI3BaGtRwDuXJUFWO6DAsih3QKYim8CBM+e/VzlRQUpoE8HTBZfA
lpc_rms=-36.59
pitch_keycenter=A#5
sample=Trumpet_Marcato_Eighth_PP_A#5.opus
tune=-30
</region>

<region>
hikey=C#4
hivel=127
lokey=C4
lovel=0
lpc=NtZRQppdQcMgz5VDoDSAwzVRFUNVeKHCPg0TQos5OMBoBJzAvRcmwEVrP0CAPhhAirYZwME3xL40FIE/Jf6wvx7e1L83pPJAjQLfwGtmHUDxOWTADoX4QMUU68DygytA
lpc_rms=-45.33
sample=Trumpet_Marcato_Eighth_PP_C4.opus
tune=+21
</region>

<region>
hikey=C#5
hivel=127
lokey=C5
lovel=0
lpc=srloQu9MY8MwlsRDs+/Ew1KGgkMGnwnD0fyeQrUoWcKBVPlBcNf2wPJ4b788YhXB4KCTQT8gysDBcYLBRFe/QWAMUMHuD8pAtsB+wSuT0kEmHbjB6wFHQQWHm8A3u6U/
lpc_rms=-40.12
pitch_keycenter=C5
sample=Trumpet_Marcato_Eighth_PP_C5.opus
tune=+14
</region>

<region>
hikey=F6
hivel=127
lokey=C6
lovel=0
lpc=zgWPQk9XMsODAW5D65Rnw/XYOkM2P/7Cg0iiQqhGOMLpGLdBWw7kPsjWgcHpQOdBu13kwfd2tUFK1OvAhUbywMtJ30HTSTHCbRx6QuRnl8JLzLNC46WqwqhbEEKena88
lpc_rms=-34.37
pitch_keycenter=C6
sample=Trumpet_Marcato_Eighth_PP_C6.opus
tune=-16
</region>

<region>
hikey=D#4
hivel=127
lokey=D4
lovel=0
lpc=QAxbQv8XQ8NctpJD8t93wy4xFEOeo6PCtHcXQsm388DCeAjAQ0SMv0aI1UAWl8TALjhGP7sLZkBf7rDAjt3dQOpEs8DkSGG9zfiZQO4ResCM+I0/krDFPwJaQMBphsU/
lpc_rms=-44.96
pitch_keycenter=D4
sample=Trumpet_Marcato_Eighth_PP_D4.opus
tune=-1
</region>

<region>
hikey=D#5
hivel=127
lokey=D5
lovel=0
lpc=20gfQu2GE8OgwnND3uVtwyOZKEMw7OTCLauSQjFpqMEiLVzB4fkcQSxl0UDsJWHBGHm3QTtPCcKKTwhCKmWPwX9qqsCuUtZBzQcPwhbR40FXDInBYgdYQfG2MsFLipJA
lpc_rms=-42.92
pitch_keycenter=D5
sample=Trumpet_Marcato_Eighth_PP_D5.opus
tune=+12
</region>

<region>
hikey=F4
hivel=127
lokey=E4
lovel=0
lpc=c2VXQuHFRcPCG5dDmNx4w7WTB0MMiJTC7CEiQlM99MCbCwbAswRVwWLf0kG6j5vBdhyPQJGG9j8Wz6Q/BqHwwBU6EEEs0jHA1JCMwNKQ4UC8nr7AotNwQCn/BMC94kM/
lpc_rms=-44.40
pitch_keycenter=E4
sample=Trumpet_Marcato_Eighth_PP_E4.opus
tune=+1
</region>

<region>
hikey=F5
hivel=127
lokey=E5
lovel=0
lpc=YyaGQrz0ZsNKSrdDY5y0w+UniENtNjLDCvW7QtlG8MHIJo5AQ1S1wBW4jkGDp/HB2ygWQhkRBMKSiJlBcvpdv1ByOsE3O5tBHkPcwcd4HEIeI0rCdLRuQo9eQcIYvZdB
lpc_rms=-38.08
pitch_keycenter=E5
sample=Trumpet_Marcato_Eighth_PP_E5.opus
tune=-3
</region>

<region>
hikey=G3
hivel=127
lokey=F#3
lovel=0
lpc=GCgwQjAzCcOLYxxDPAuUwvR8wUF49fHBErygQdg8YsDqGKdAaz8TweQcCkFWtIbAf9Khvq2Ojz8f6HrAIWm/QCUcRcD+ERhAvV9cwDmZWz7rsnpAHpN0wPwvpT+VaSK9
lpc_rms=-52.08
pitch_keycenter=F#3
sample=Trumpet_Marcato_Eighth_PP_F#3.opus
tune=+18
</region>

<region>
hikey=G4
hivel=127
lokey=F#4
lovel=0
lpc=1otUQpnFRMO4YZpDLD6Gw2H5HUO74rXC/gBoQtUI4MHI+z5Bz3JjwXuamkEakoTBDYIYQZKSqb8ykbrAz8aNQHuwiUCEd+LAHp0xQDKSLMCCr/hATBEFwZbwbUDKXv2+
lpc_rms=-43.46
pitch_keycenter=F#4
sample=Trumpet_Marcato_Eighth_PP_F#4.opus
tune=-10
</region>

<region>
hikey=G5
hivel=127
lokey=F#5
lovel=0
lpc=QjexQlT8k8PiG/BDI1Tuw6oqpUPXITfDzLTeQs9XqMIZZo5CGJVZwsFLFEJsSY7Bx8lZQZHmjMGlW5JB5Q4Nv+kKlsE6g/tBuXkCwnAFHULTZkDCzrlXQlksIsImm5NB
lpc_rms=-34.16
pitch_keycenter=F#5
sample=Trumpet_Marcato_Eighth_PP_F#5.opus
tune=-22
</region>

<region>
hikey=A3
hivel=127
lokey=G#3
lovel=0
lpc=hR1VQqrgMMPN11tD7vPgwrfbo0FVnr7Be3fLQRdT9j8u4cHAScPYwHC6O0CXxb9ACLq7v4FzY8A994k/SvW3PgIR7b6mhVe94d8FQHb1lr9BkOO/2NIHQAlSdL/9t5A+
lpc_rms=-50.44
pitch_keycenter=G#3
sample=Trumpet_Marcato_Eighth_PP_G#3.opus
tune=+6
</region>

<region>
hikey=A4
hivel=127
lokey=G#4
lovel=0
lpc=x3+cQoaQjsNmMtVDXZepwynMLUMg1KfC8OAhQs3nTMETNVFBnuutwVUyZUHG4ATAEhF4wBaJD0FmKhjBrAiQPwi3EEGC1BbBrNYawBeHKEHyU5S/x2AcwbHQ00COrRy/
lpc_rms=-42.02
pitch_keycenter=G#4
sample=Trumpet_Marcato_Eighth_PP_G#4.opus
tune=-22
</region>

<region>
hikey=A5
hivel=127
lokey=G#5
lovel=0
lpc=oZSeQsFuYsNo6ZZDPdd7w+aIK0ONCgDDKerJQlh2hMIiBj9CzcxcwhGuY0K+YQrCdNmqQS/7/cHitRhCX8zqwTHp+kFgJi3CMaMuQmMiI8JyD3pCYJi4wsImq0JIgBHC
lpc_rms=-36.99
pitch_keycenter=G#5
sample=Trumpet_Marcato_Eighth_PP_G#5.opus
tune=-29
</region>
</group>

<group>
group_label=Group_43-86
lpc_hicc1=86
lpc_locc1=43

<region>
hikey=B3
hivel=127
lokey=A#3
lovel=0
lpc=Iiz2QUSb68JAIlNDaq9ww3SJTUNrbhHD3OGyQtnOScLsHepBmgKTwQpCdUEedanBANHkQRGn2cE2RpJBod8VwchSOECl7QlA2n+UwHEduT/7ftxAFGw+wUGZA0EBiQvA
lpc_rms=-40.75
pitch_keycenter=A#3
sample=Trumpet_Marcato_Eighth_MF_A#3.opus
tune=+25
</region>

<region>
hikey=B4
hivel=127
lokey=A#4
lovel=0
lpc=y0eUQQ3bg8J08edCABcNw7E9DUMWifzC4RnQQj4uqcKNsZJCr+eAwqzpUEJ5AxfC0kLEQfURa8Ft/ypB+t8zwfLOG0FTAzbAOc+PwNfxBUEPnBDB7s4BQXmhs8CWGAFA
lpc_rms=-37.23
pitch_keycenter=A#4
sample=Trumpet_Marcato_Eighth_MF_A#4.opus
tune=-8
</region>

<region>
hikey=B5
hivel=127
lokey=A#5
lovel=0
lpc=A9vBQUlCP8LcFXZC7cNlwmJkPkI1dfjBZRmUQT5x6sBOjI1AAbUrwL4dskAfsarAt9PbQCfdWcAzfMs/vhsmQBurxb+jfkQ/2Ey/QHYdP8Hk3aZB2l28wWJOt0Gp5UXB
lpc_rms=-34.00
pitch_keycenter=A#5
sample=Trumpet_Marcato_Eighth_MF_A#5.opus
tune=-37
</region>

<region>
hikey=C#4
hivel=127
lokey=C4
lovel=0
lpc=Pz0OQiaOBsOhm2hDGDB4wxbDPkPR6ebC8utaQrTIlMG9ZeRAkH0ewfwyW0GoOVHBm20pQf6zAMELNaVA79IZwKx/dL+OoahAILqDwEKcvcD/tHFBfJllwazN50BxXdi/
lpc_rms=-43.06
sample=Trumpet_Marcato_Eighth_MF_C4.opus
tune=+13
</region>

<region>
hikey=C#5
hivel=127
lokey=C5
lovel=0
lpc=nQTyQdkv4cLpEktDUFF4w99sdUMvHFPDa30eQz8Hy8KN1mBC2B/lwVyKd0F2MjHB13IvQSrjIcEvdepABUcFwOBX2MDesIdBFk3Awb8q2EE0XNjB/cm+QU54bcFsQYtA
lpc_rms=-37.33
pitch_keycenter=C5
sample=Trumpet_Marcato_Eighth_MF_C5.opus
tune=+5
</region>

<region>
hikey=F6
hivel=127
lokey=C6
lovel=0
lpc=LSQYQthij8IANqhClTSgwroVmULrcXbChF1eQj6cLMIwZyJCOHf2wYC+80G8T7PB5Ay6QZUBhcF94pFBW7ovwYjTSUH+6+DAnwobQW6EDcAGikA/+GA3QeC21MF8XZlB
lpc_rms=-32.69
pitch_keycenter=C6
sample=Trumpet_Marcato_Eighth_MF_C6.opus
tune=-23
</region>

<region>
hikey=D#4
hivel=127
lokey=D4
lovel=0
lpc=32VEQjp6P8PqqqZDp7iqw88ybkOmEgXD88mLQhe5AsLgblNBX4luwSrb3EHbwejBdbJrQRNjNr+3PUrATI3uQEENfcHqR3xBTOJswCjqecDKYjXAhPFIQYfENsHvxHNA
lpc_rms=-39.44
pitch_keycenter=D4
sample=Trumpet_Marcato_Eighth_MF_D4.opus
tune=-6
</region>

<region>
hikey=D#5
hivel=127
lokey=D5
lovel=0
lpc=X5shQZwz9ME03zpCEHxLwuvJPkIi0yTCHtwDQg2fxMEjZphBHbGDwR8oeUEpZnPBoRlqQVUSSsHBhxNBQxa4wMbLnkBKpr/AS53LQDURosD5vVlA7tDnvw5DIj8Nc5c9
lpc_rms=-36.78
pitch_keycenter=D5
sample=Trumpet_Marcato_Eighth_MF_D5.opus
tune=-1
</region>

<region>
hikey=F4
hivel=127
lokey=E4
lovel=0
lpc=UrhCQk/vPsMbyqlDFnG4w+q+j0N6BDXDFsfDQjYUSsLsNRNCTvIcwhfgI0KZzxLCcq7fQcoImsG9RWxBdRcVwQePNsAAoWdBqIxowQB5kEDDp9dABrcjwYY1ukCBqpa/
lpc_rms=-38.74
pitch_keycenter=E4
sample=Trumpet_Marcato_Eighth_MF_E4.opus
tune=-7
</region>

<region>
hikey=F5
hivel=127
lokey=E5
lovel=0
lpc=k16VQSN5c8JwUsVCV+jXwv/WvUIO9I3Cs4YvQlZ8qcHDWh5ByXYNwR/pc0E96dHBInAdQqsbQsIBZjtC/7YFwmmkeUEzzGtA/kySwS20wkGWY77BhnagQepgRMF7+YVA
lpc_rms=-37.44
pitch_keycenter=E5
sample=Trumpet_Marcato_Eighth_MF_E5.opus
tune=-18
</region>

<region>
hikey=G3
hivel=127
lokey=F#3
lovel=0
lpc=ZKgYQqOwEMMUaX1DY5SLwy4xZkOI4iDDIGDMQg6cdcIN8BRCZfu7walFiEFsk37Bg0+CQan7ZcFS9zVBz0/1wCLr9D5YAh1BjEl8wTVRSUHxGrHA68AeQHceC8C5D3A/
lpc_rms=-41.31
pitch_keycenter=F#3
sample=Trumpet_Marcato_Eighth_MF_F#3.opus
tune=+43
</region>

<region>
hikey=G4
hivel=127
lokey=F#4
lovel=0
lpc=5PY7Qr1ZOMPpUKVDW5m4w1NqmkMCZ2PDOo0kQ55r7sKIEKVCIlFUwlrJDkLoSO3BC2HTQeXDiMEpfo1AF7ENQJHWTsBoGBRBQEqVwdzkskGfe6fBe7aJQRkHIMEGvDRA
lpc_rms=-36.21
pitch_keycenter=F#4
sample=Trumpet_Marcato_Eighth_MF_F#4.opus
tune=-13
</region>

<region>
hikey=G5
hivel=127
lokey=F#5
lovel=0
lpc=oYLCQQAGjcLtZt1CaDz2wr7J50I6csLCOdKYQjZMVsJzFQpC2AOYwQxJK0HdNerAaykZQdvEHcE3eQ5BZcKXwN3z5r2WagFBesJnwW+Or0HKsdjBZ5nmQQICqsFDfBlB
lpc_rms=-31.95
pitch_keycenter=F#5
sample=Trumpet_Marcato_Eighth_MF_F#5.opus
tune=-22
</region>

<region>
hikey=A3
hivel=127
lokey=G#3
lovel=0
lpc=xJ0pQhBSGcMzsHBDb4Bbw4N6D0MOYbLCDc1qQl+u88FblsFAGBt/QBPGm7+WMxHAqvzpP/VLNL81cKk/uoDYwN3Vd0HCYpHBG+s2QfBKgcDJCHJAg7LIwIKzkkAvA52/
lpc_rms=-45.21
pitch_keycenter=G#3
sample=Trumpet_Marcato_Eighth_MF_G#3.opus
tune=+44
</region>

<region>
hikey=A4
hivel=127
lokey=G#4
lovel=0
lpc=+0dCQgGmP8OakKhDeNiww2hHhEMkrCrDnDXPQlw4X8JlS/dBUDCowa4WSEH4riXBVx6MQYFyfsHzD7e/zB5lQXRmJ8HS9JY/fbOKQGiUw8DgWIVAqBx+Pfx/A8D074g/
lpc_rms=-38.27
pitch_keycenter=G#4
sample=Trumpet_Marcato_Eighth_MF_G#4.opus
tune=-24
</region>

<region>
hikey=A5
hivel=127
lokey=G#5
lovel=0
lpc=TRjvQfgklMKYv9pCp7LnwngJ3UKj+rXCgfeGQgu6HcIFF8BBZV5YwUIBM0HG6NfAbQsPQQbu0sCLmZxAEpCNPwUkRz9FI+y+325gQCiSRcDsXgBBNTO6wBAcKEASKWxA
lpc_rms=-34.20
pitch_keycenter=G#5
sample=Trumpet_Marcato_Eighth_MF_G#5.opus
tune=-19
</region>
</group>

<group>
group_label=Group_87-127
lpc_hicc1=127
lpc_locc1=87

<region>
hikey=B3
hivel=127
lokey=A#3
lovel=0
lpc=GlrfQVTx0sKG3DpDVUNSw2KPLkNjLOXC8llqQsfWssESjBtBznQnwQ1nNUFRyg7Byo3LQKItZcCVW4u+QkRAQHp+KsAGboM/2UPuvmskML/1GolA8GjGwAUKdUCMHFm/
lpc_rms=-44.44
pitch_keycenter=A#3
sample=Trumpet_Marcato_Eighth_FF_A#3.opus
tune=+4
</region>

<region>
hikey=B4
hivel=127
lokey=A#4
lovel=0
lpc=6IETQTKb18FCbx9ChC0rwq8xIUI8ugvCvGfhQeDrtsEWK6ZBdCyawdGmhkEGYlzB7TwmQTYn5MD1QKVALfSLwBVcKkAjXIo/SB9gwEehZkBwljnAJA0ZQMPP4b+keis/
lpc_rms=-35.75
pitch_keycenter=A#4
sample=Trumpet_Marcato_Eighth_FF_A#4.opus
tune=-4
</region>

<region>
hikey=B5
hivel=127
lokey=A#5
lovel=0
lpc=JFktQXENicGZuLpB2zmqwV+HqkHEnHjBeHVgQYaHEcF6pR5B0nDfwOB1CEHnxLTAz4fnQGMMhsDCfLRAedg3wL+2mEDOGTfAN/3HQInMs8DkRw5B7cXVwGy870DiHgnA
lpc_rms=-32.83
pitch_keycenter=A#5
sample=Trumpet_Marcato_Eighth_FF_A#5.opus
tune=-22
</region>

<region>
hikey=C#4
hivel=127
lokey=C4
lovel=0
lpc=ibq0QQW6o8KPKQ5Djbclw6dgHENemwLDcQXFQvs0icJwHzVCHQTfwVPXhEHv7jjB4U40QXciTsET21xBNMdcwXvDRUEse9zAgzO9v3iv0ECEhLnAnF1NQDvxvL+CHr8+
lpc_rms=-42.58
sample=Trumpet_Marcato_Eighth_FF_C4.opus
tune=+40
</region>

<region>
hikey=C#5
hivel=127
lokey=C5
lovel=0
lpc=teozQaNnB8LwP09CoTlmwizpXkKOykbCCa4lQrO5AMIec8ZB5reZwXqvdkEQ4FLBjk8yQTJO5MArPkBAsxVPv4qQJ7+aWElAXpyjwA6JpkCvaoTAfdZGQP4D0781PrE+
lpc_rms=-36.49
pitch_keycenter=C5
sample=Trumpet_Marcato_Eighth_FF_C5.opus
tune=+7
</region>

<region>
hikey=F6
hivel=127
lokey=C6
lovel=0
lpc=1pfQQYOTH8JfMhVCWdL0wZfl1UHp/prBOPB8QWuCHMGiWwNBBqWGwLTnhECC1Fy/zHavP9mRkz89lcu9sqU1QBgPG8DmCrpA02jbwADxREEcp3bBKsa2QfXx+cEoNnpB
lpc_rms=-31.81
pitch_keycenter=C6
sample=Trumpet_Marcato_Eighth_FF_C6.opus
tune=-20
</region>

<region>
hikey=D#4
hivel=127
lokey=D4
lovel=0
lpc=O4isQa/qmsKFzwhDIeglw234IkOEBwrDXSDOQtfHi8KQTTlCbNwFwgug3kGUXsDBkouaQZzXRcEzGm9AG4GYQCTyHcH27zFBqh0UwfnuqkCJ7Hi/ia+Nv7SDQD+KxXG9
lpc_rms=-42.24
pitch_keycenter=D4
sample=Trumpet_Marcato_Eighth_FF_D4.opus
tune=-1
</region>

<region>
hikey=D#5
hivel=127
lokey=D5
lovel=0
lpc=2z2uQF8hRsFDL19BqP84wWMaGkFzE+rA17GXQLd6OcAE0iBAhCkIwG892D96ca2/ChvaP+zVF8D5TChAxo4CwDomyD+9P7G/7tWxPxLTp74B/5O/8tYHQAfm0L+nhBE/
lpc_rms=-32.25
pitch_keycenter=D5
sample=Trumpet_Marcato_Eighth_FF_D5.opus
tune=-8
</region>

<region>
hikey=F4
hivel=127
lokey=E4
lovel=0
lpc=bIHWQeEPysLZYTdD0gBfwzjUWUM9PzrDjl4LQ1fXtsL742dCU3kgwtNB/UHL8+bB/1rgQb2Pw8FDxJJBZzZgwRsIXEEyv27BpfJ6QayEe8FkyFRBIWHjwOhmzD9QcKI9
lpc_rms=-39.25
pitch_keycenter=E4
sample=Trumpet_Marcato_Eighth_FF_E4.opus
tune=-5
</region>

<region>
hikey=F5
hivel=127
lokey=E5
lovel=0
lpc=G/gmQazi8MFtWDFCZbw9wmHiM0ITSxbCqLXTQVsshsEWlVpBT2FjwWUwZEGKF0HBLTwLQY29lcCdRTZAfOxkwNLksEBblsjANTSkQNG6/78n58K/4O2WQEMrosA/rR1A
lpc_rms=-34.94
pitch_keycenter=E5
sample=Trumpet_Marcato_Eighth_FF_E5.opus
tune=+3
</region>

<region>
hikey=G3
hivel=127
lokey=F#3
lovel=0
lpc=fOf+QSW+3sLCdytDbTkdw6li0kL8IX/CdukZQrdzncEMvN5AjqNOwMXAtUAb99HAs0AWQAc+bECABffALc0RQWCsA8FVk6FAX4wvPzmp/MDZykFBlg4Ywca5Z0BjTvW+
lpc_rms=-48.49
pitch_keycenter=F#3
sample=Trumpet_Marcato_Eighth_FF_F#3.opus
tune=+24
</region>

<region>
hikey=G4
hivel=127
lokey=F#4
lovel=0
lpc=oLtEQeE8FMISA11ChfNqwq/SWUIuZDrClPMVQqsE5MEwF6xBTdKHwe4lZ0FxcUTBpYgVQZ0dpcBjVvA/LN01v26wgj/Rf6+/DosSQIRsIcCqKps/RvJkP75XxL8+GDw/
lpc_rms=-37.99
pitch_keycenter=F#4
sample=Trumpet_Marcato_Eighth_FF_F#4.opus
tune=-11
</region>

<region>
hikey=G5
hivel=127
lokey=F#5
lovel=0
lpc=kozjQOeGf8Exa59BUVqWwU7ghEFpq1LBqtkjQWmq+sDTr+BA9VWtwAYqfkAq7hTAsT+MP9Za1j9unXzAiH6gQIgldMBdkUhA47FZwCEHqUAwYMPA/xW6QN6Ee8AOMglA
lpc_rms=-35.89
pitch_keycenter=F#5
sample=Trumpet_Marcato_Eighth_FF_F#5.opus
tune=+1
</region>

<region>
hikey=A3
hivel=127
lokey=G#3
lovel=0
lpc=hzKZQZQqhcKOc+JCWP8Fw+YZBEPJeOnCuIa+Qk3gkcLRFVdC/4wjwgimCEJODe/BTD/GQawXj8GoPixB5VWewOVc+D4NvgRAh12Kv2CWLMCOFKpAvMeQwBKpBkD7qey+
lpc_rms=-41.43
pitch_keycenter=G#3
sample=Trumpet_Marcato_Eighth_FF_G#3.opus
tune=+13
</region>

<region>
hikey=A4
hivel=127
lokey=G#4
lovel=0
lpc=Et1kQdZyN8LXaJBCKNGgwjcqm0Iy/4nCyY1mQip+QsLPbjRCMpcowhrDDUL6nNjB65WdQcT0UsFJQANBulycwD9aBUAAbo4/vnl8wEXAv0C6Gt3AgsbJQNbbgMCdsa0/
lpc_rms=-37.38
pitch_keycenter=G#4
sample=Trumpet_Marcato_Eighth_FF_G#4.opus
tune=-9
</region>

<region>
hikey=A5
hivel=127
lokey=G#5
lovel=0
lpc=/hkaQTRsisFud6lBbsOfwccgpUFp24rBWF9sQSpmMsGy3TFBHCj8wMaIs0D68NG/K8CBPynb5T8nhCvA3sedQJn1c8CjAaJAy6CawJf7u0CcvFDABfBwQGCOZ8BQHYNA
lpc_rms=-33.08
pitch_keycenter=G#5
sample=Trumpet_Marcato_Eighth_FF_G#5.opus
</region>
</group>

<group>
group_label=RR1
seq_length=4
seq_position=1

<region>
hivel=127
key=A#3
lovel=87
offset=1004
sample=Trumpet_staccatissimo_FF_A#3_RR1.opus
tune=+55
</region>

<region>
hivel=127
key=A#4
lovel=87
offset=3777
sample=Trumpet_staccatissimo_FF_A#4_RR1.opus
tune=-34
</region>

<region>
hivel=127
key=A#5
lovel=87
offset=5505
sample=Trumpet_staccatissimo_FF_A#5_RR1.opus
tune=-39
</region>

<region>
hivel=127
key=A3
lovel=87
sample=Trumpet_staccatissimo_FF_A3_RR1.opus
tune=+58
</region>

<region>
hivel=127
key=A4
lovel=87
offset=1529
sample=Trumpet_staccatissimo_FF_A4_RR1.opus
tune=-44
</region>

<region>
hivel=127
key=A5
lovel=87
offset=28
sample=Trumpet_staccatissimo_FF_A5_RR1.opus
tune=-28
</region>

<region>
hivel=127
key=B3
lovel=87
offset=116
sample=Trumpet_staccatissimo_FF_B3_RR1.opus
tune=+22
</region>

<region>
hivel=127
key=B4
lovel=87
offset=558
sample=Trumpet_staccatissimo_FF_B4_RR1.opus
tune=-15
</region>

<region>
hivel=127
key=B5
lovel=87
sample=Trumpet_staccatissimo_FF_B5_RR1.opus
tune=-23
</region>

<region>
hivel=127
key=C#4
lovel=87
offset=67
sample=Trumpet_staccatissimo_FF_C#4_RR1.opus
tune=+27
</region>

<region>
hivel=127
key=C#5
lovel=87
sample=Trumpet_staccatissimo_FF_C#5_RR1.opus
tune=-6
</region>

<region>
hikey=C4
hivel=127
lokey=C4
lovel=87
sample=Trumpet_staccatissimo_FF_C4_RR1.opus
tune=-5
</region>

<region>
hivel=127
key=C5
lovel=87
offset=42
sample=Trumpet_staccatissimo_FF_C5_RR1.opus
tune=-13
</region>

<region>
hikey=F6
hivel=127
lokey=C6
lovel=87
offset=4771
pitch_keycenter=C6
sample=Trumpet_staccatissimo_FF_C6_RR1.opus
tune=-11
</region>

<region>
hivel=127
key=D#4
lovel=87
offset=10
sample=Trumpet_staccatissimo_FF_D#4_RR1.opus
tune=+13
</region>

<region>
hivel=127
key=D#5
lovel=87
offset=3486
sample=Trumpet_staccatissimo_FF_D#5_RR1.opus
tune=-30
</region>

<region>
hivel=127
key=D4
lovel=87
sample=Trumpet_staccatissimo_FF_D4_RR1.opus
tune=+20
</region>

<region>
hivel=127
key=D5
lovel=87
offset=3393
sample=Trumpet_staccatissimo_FF_D5_RR1.opus
tune=-19
</region>

<region>
hivel=127
key=E4
lovel=87
offset=3142
sample=Trumpet_staccatissimo_FF_E4_RR1.opus
tune=-14
</region>

<region>
hivel=127
key=E5
lovel=87
offset=146
sample=Trumpet_staccatissimo_FF_E5_RR1.opus
tune=-18
</region>

<region>
hivel=127
key=F#3
lovel=87
offset=2658
sample=Trumpet_staccatissimo_FF_F#3_RR1.opus
tune=+50
</region>

<region>
hivel=127
key=F#4
lovel=87
offset=3640
sample=Trumpet_staccatissimo_FF_F#4_RR1.opus
tune=-14
</region>

<region>
hivel=127
key=F#5
lovel=87
offset=3281
sample=Trumpet_staccatissimo_FF_F#5_RR1.opus
tune=-23
</region>

<region>
hivel=127
key=F4
lovel=87
offset=1710
sample=Trumpet_staccatissimo_FF_F4_RR1.opus
tune=-11
</region>

<region>
hivel=127
key=F5
lovel=87
sample=Trumpet_staccatissimo_FF_F5_RR1.opus
tune=-30
</region>

<region>
hivel=127
key=G#3
lovel=87
offset=4095
sample=Trumpet_staccatissimo_FF_G#3_RR1.opus
tune=+44
</region>

<region>
hivel=127
key=G#4
lovel=87
sample=Trumpet_staccatissimo_FF_G#4_RR1.opus
tune=+2
</region>

<region>
hivel=127
key=G#5
lovel=87
sample=Trumpet_staccatissimo_FF_G#5_RR1.opus
tune=-39
</region>

<region>
hivel=127
key=G3
lovel=87
sample=Trumpet_staccatissimo_FF_G3_RR1.opus
tune=+43
</region>

<region>
hivel=127
key=G4
lovel=87
offset=56
sample=Trumpet_staccatissimo_FF_G4_RR1.opus
tune=-34
</region>

<region>
hivel=127
key=G5
lovel=87
offset=3233
sample=Trumpet_staccatissimo_FF_G5_RR1.opus
tune=+4
</region>

<region>
hivel=86
key=A#3
lovel=43
offset=3797
sample=Trumpet_staccatissimo_MF_A#3_RR1.opus
tune=+2
</region>

<region>
hivel=86
key=A#4
lovel=43
offset=5453
sample=Trumpet_staccatissimo_MF_A#4_RR1.opus
tune=-10
</region>

<region>
hivel=86
key=A#5
lovel=43
sample=Trumpet_staccatissimo_MF_A#5_RR1.opus
tune=-26
</region>

<region>
hivel=86
key=A3
lovel=43
offset=3596
sample=Trumpet_staccatissimo_MF_A3_RR1.opus
tune=+21
</region>

<region>
hivel=86
key=A4
lovel=43
offset=1412
sample=Trumpet_staccatissimo_MF_A4_RR1.opus
tune=-32
</region>

<region>
hivel=86
key=A5
lovel=43
sample=Trumpet_staccatissimo_MF_A5_RR1.opus
tune=-21
</region>

<region>
hivel=86
key=B3
lovel=43
offset=2899
sample=Trumpet_staccatissimo_MF_B3_RR1.opus
tune=-16
</region>

<region>
hivel=86
key=B4
lovel=43
offset=5406
sample=Trumpet_staccatissimo_MF_B4_RR1.opus
tune=-7
</region>

<region>
hivel=86
key=B5
lovel=43
sample=Trumpet_staccatissimo_MF_B5_RR1.opus
tune=-12
</region>

<region>
hivel=86
key=C#4
lovel=43
offset=3433
sample=Trumpet_staccatissimo_MF_C#4_RR1.opus
tune=+10
</region>

<region>
hivel=86
key=C#5
lovel=43
sample=Trumpet_staccatissimo_MF_C#5_RR1.opus
tune=+11
</region>

<region>
hikey=C4
hivel=86
lokey=C4
lovel=43
offset=2121
sample=Trumpet_staccatissimo_MF_C4_RR1.opus
tune=+6
</region>

<region>
hivel=86
key=C5
lovel=43
offset=5334
sample=Trumpet_staccatissimo_MF_C5_RR1.opus
tune=+5
</region>

<region>
hikey=F6
hivel=86
lokey=C6
lovel=43
pitch_keycenter=C6
sample=Trumpet_staccatissimo_MF_C6_RR1.opus
tune=-21
</region>

<region>
hivel=86
key=D#4
lovel=43
offset=3710
sample=Trumpet_staccatissimo_MF_D#4_RR1.opus
tune=-3
</region>

<region>
hivel=86
key=D#5
lovel=43
offset=3159
sample=Trumpet_staccatissimo_MF_D#5_RR1.opus
tune=-20
</region>

<region>
hivel=86
key=D4
lovel=43
offset=2997
sample=Trumpet_staccatissimo_MF_D4_RR1.opus
tune=-5
</region>

<region>
hivel=86
key=D5
lovel=43
sample=Trumpet_staccatissimo_MF_D5_RR1.opus
tune=-38
</region>

<region>
hivel=86
key=E4
lovel=43
offset=1124
sample=Trumpet_staccatissimo_MF_E4_RR1.opus
</region>

<region>
hivel=86
key=E5
lovel=43
sample=Trumpet_staccatissimo_MF_E5_RR1.opus
tune=-14
</region>

<region>
hivel=86
key=F#3
lovel=43
offset=2047
sample=Trumpet_staccatissimo_MF_F#3_RR1.opus
tune=+6
</region>

<region>
hivel=86
key=F#4
lovel=43
offset=4160
sample=Trumpet_staccatissimo_MF_F#4_RR1.opus
tune=-14
</region>

<region>
hivel=86
key=F#5
lovel=43
sample=Trumpet_staccatissimo_MF_F#5_RR1.opus
tune=-13
</region>

<region>
hivel=86
key=F4
lovel=43
offset=3281
sample=Trumpet_staccatissimo_MF_F4_RR1.opus
tune=-17
</region>

<region>
hivel=86
key=F5
lovel=43
sample=Trumpet_staccatissimo_MF_F5_RR1.opus
tune=-39
</region>

<region>
hivel=86
key=G#3
lovel=43
offset=3241
sample=Trumpet_staccatissimo_MF_G#3_RR1.opus
tune=+14
</region>

<region>
hivel=86
key=G#4
lovel=43
offset=117
sample=Trumpet_staccatissimo_MF_G#4_RR1.opus
tune=-21
</region>

<region>
hivel=86
key=G#5
lovel=43
sample=Trumpet_staccatissimo_MF_G#5_RR1.opus
tune=-30
</region>

<region>
hivel=86
key=G3
lovel=43
offset=1492
sample=Trumpet_staccatissimo_MF_G3_RR1.opus
tune=+15
</region>

<region>
hivel=86
key=G4
lovel=43
offset=3857
sample=Trumpet_staccatissimo_MF_G4_RR1.opus
tune=-20
</region>

<region>
hivel=86
key=G5
lovel=43
offset=3862
sample=Trumpet_staccatissimo_MF_G5_RR1.opus
tune=-23
</region>

<region>
hivel=42
key=A#3
lovel=0
offset=4070
sample=Trumpet_staccatissimo_PP_A#3_RR1.opus
tune=+5
</region>

<region>
hivel=42
key=A#4
lovel=0
offset=2589
sample=Trumpet_staccatissimo_PP_A#4_RR1.opus
tune=-47
</region>

<region>
hivel=42
key=A#5
lovel=0
sample=Trumpet_staccatissimo_PP_A#5_RR1.opus
tune=-39
</region>

<region>
hivel=42
key=A3
lovel=0
offset=3478
sample=Trumpet_staccatissimo_PP_A3_RR1.opus
tune=+37
</region>

<region>
hivel=42
key=A4
lovel=0
offset=3724
sample=Trumpet_staccatissimo_PP_A4_RR1.opus
tune=-33
</region>

<region>
hivel=42
key=A5
lovel=0
sample=Trumpet_staccatissimo_PP_A5_RR1.opus
tune=-25
</region>

<region>
hivel=42
key=B3
lovel=0
offset=3292
sample=Trumpet_staccatissimo_PP_B3_RR1.opus
tune=+10
</region>

<region>
hivel=42
key=B4
lovel=0
offset=2493
sample=Trumpet_staccatissimo_PP_B4_RR1.opus
tune=-29
</region>

<region>
hivel=42
key=B5
lovel=0
offset=2345
sample=Trumpet_staccatissimo_PP_B5_RR1.opus
tune=-37
</region>

<region>
hivel=42
key=C#4
lovel=0
offset=2689
sample=Trumpet_staccatissimo_PP_C#4_RR1.opus
tune=+1
</region>

<region>
hivel=42
key=C#5
lovel=0
offset=3483
sample=Trumpet_staccatissimo_PP_C#5_RR1.opus
tune=-7
</region>

<region>
hikey=C4
hivel=42
lokey=C4
lovel=0
offset=4021
sample=Trumpet_staccatissimo_PP_C4_RR1.opus
tune=+47
</region>

<region>
hivel=42
key=C5
lovel=0
offset=4095
sample=Trumpet_staccatissimo_PP_C5_RR1.opus
tune=-14
</region>

<region>
hikey=F6
hivel=42
lokey=C6
lovel=0
offset=1394
pitch_keycenter=C6
sample=Trumpet_staccatissimo_PP_C6_RR1.opus
tune=+3
</region>

<region>
hivel=42
key=D#4
lovel=0
offset=2723
sample=Trumpet_staccatissimo_PP_D#4_RR1.opus
tune=-9
</region>

<region>
hivel=42
key=D#5
lovel=0
offset=809
sample=Trumpet_staccatissimo_PP_D#5_RR1.opus
tune=-17
</region>

<region>
hivel=42
key=D4
lovel=0
offset=3377
sample=Trumpet_staccatissimo_PP_D4_RR1.opus
tune=-11
</region>

<region>
hivel=42
key=D5
lovel=0
offset=4670
sample=Trumpet_staccatissimo_PP_D5_RR1.opus
tune=-14
</region>

<region>
hivel=42
key=E4
lovel=0
offset=4478
sample=Trumpet_staccatissimo_PP_E4_RR1.opus
tune=-6
</region>

<region>
hivel=42
key=E5
lovel=0
offset=1438
sample=Trumpet_staccatissimo_PP_E5_RR1.opus
tune=-31
</region>

<region>
hivel=42
key=F#3
lovel=0
offset=2202
sample=Trumpet_staccatissimo_PP_F#3_RR1.opus
tune=-22
</region>

<region>
hivel=42
key=F#4
lovel=0
offset=3213
sample=Trumpet_staccatissimo_PP_F#4_RR1.opus
tune=-11
</region>

<region>
hivel=42
key=F#5
lovel=0
offset=111
sample=Trumpet_staccatissimo_PP_F#5_RR1.opus
tune=-23
</region>

<region>
hivel=42
key=F4
lovel=0
offset=3176
sample=Trumpet_staccatissimo_PP_F4_RR1.opus
tune=-10
</region>

<region>
hivel=42
key=F5
lovel=0
offset=3557
sample=Trumpet_staccatissimo_PP_F5_RR1.opus
tune=-53
</region>

<region>
hivel=42
key=G#3
lovel=0
offset=2549
sample=Trumpet_staccatissimo_PP_G#3_RR1.opus
tune=+8
</region>

<region>
hivel=42
key=G#4
lovel=0
offset=4351
sample=Trumpet_staccatissimo_PP_G#4_RR1.opus
tune=-22
</region>

<region>
hivel=42
key=G#5
lovel=0
offset=2823
sample=Trumpet_staccatissimo_PP_G#5_RR1.opus
tune=-30
</region>

<region>
hivel=42
key=G3
lovel=0
offset=2360
sample=Trumpet_staccatissimo_PP_G3_RR1.opus
tune=+21
</region>

<region>
hivel=42
key=G4
lovel=0
offset=3079
sample=Trumpet_staccatissimo_PP_G4_RR1.opus
tune=-39
</region>

<region>
hivel=42
key=G5
lovel=0
offset=3574
sample=Trumpet_staccatissimo_PP_G5_RR1.opus
tune=-17
</region>
</group>

<group>
group_label=RR2
seq_length=4
seq_position=2

<region>
hivel=127
key=A#3
lovel=87
offset=150
sample=Trumpet_staccatissimo_FF_A#3_RR2.opus
tune=+67
</region>

<region>
hivel=127
key=A#4
lovel=87
sample=Trumpet_staccatissimo_FF_A#4_RR2.opus
tune=-29
</region>

<region>
hivel=127
key=A#5
lovel=87
sample=Trumpet_staccatissimo_FF_A#5_RR2.opus
tune=-50
</region>

<region>
hivel=127
key=A3
lovel=87
offset=170
sample=Trumpet_staccatissimo_FF_A3_RR2.opus
tune=+67
</region>

<region>
hivel=127
key=A4
lovel=87
offset=26
sample=Trumpet_staccatissimo_FF_A4_RR2.opus
tune=-18
</region>

<region>
hivel=127
key=A5
lovel=87
sample=Trumpet_staccatissimo_FF_A5_RR2.opus
tune=-37
</region>

<region>
hivel=127
key=B3
lovel=87
offset=109
sample=Trumpet_staccatissimo_FF_B3_RR2.opus
tune=+2
</region>

<region>
hivel=127
key=B4
lovel=87
offset=118
sample=Trumpet_staccatissimo_FF_B4_RR2.opus
</region>

<region>
hivel=127
key=B5
lovel=87
sample=Trumpet_staccatissimo_FF_B5_RR2.opus
tune=-19
</region>

<region>
hivel=127
key=C#4
lovel=87
sample=Trumpet_staccatissimo_FF_C#4_RR2.opus
tune=+30
</region>

<region>
hivel=127
key=C#5
lovel=87
sample=Trumpet_staccatissimo_FF_C#5_RR2.opus
tune=-1
</region>

<region>
hikey=C4
hivel=127
lokey=C4
lovel=87
sample=Trumpet_staccatissimo_FF_C4_RR2.opus
tune=+9
</region>

<region>
hivel=127
key=C5
lovel=87
offset=126
sample=Trumpet_staccatissimo_FF_C5_RR2.opus
tune=-6
</region>

<region>
hikey=F6
hivel=127
lokey=C6
lovel=87
pitch_keycenter=C6
sample=Trumpet_staccatissimo_FF_C6_RR2.opus
tune=-26
</region>

<region>
hivel=127
key=D#4
lovel=87
offset=564
sample=Trumpet_staccatissimo_FF_D#4_RR2.opus
tune=+6
</region>

<region>
hivel=127
key=D#5
lovel=87
offset=70
sample=Trumpet_staccatissimo_FF_D#5_RR2.opus
tune=-19
</region>

<region>
hivel=127
key=D4
lovel=87
offset=150
sample=Trumpet_staccatissimo_FF_D4_RR2.opus
tune=+28
</region>

<region>
hivel=127
key=D5
lovel=87
sample=Trumpet_staccatissimo_FF_D5_RR2.opus
tune=-23
</region>

<region>
hivel=127
key=E4
lovel=87
sample=Trumpet_staccatissimo_FF_E4_RR2.opus
tune=-1
</region>

<region>
hivel=127
key=E5
lovel=87
offset=63
sample=Trumpet_staccatissimo_FF_E5_RR2.opus
tune=-16
</region>

<region>
hivel=127
key=F#3
lovel=87
offset=555
sample=Trumpet_staccatissimo_FF_F#3_RR2.opus
tune=+30
</region>

<region>
hivel=127
key=F#4
lovel=87
offset=48
sample=Trumpet_staccatissimo_FF_F#4_RR2.opus
tune=-12
</region>

<region>
hivel=127
key=F#5
lovel=87
sample=Trumpet_staccatissimo_FF_F#5_RR2.opus
tune=-29
</region>

<region>
hivel=127
key=F4
lovel=87
offset=22
sample=Trumpet_staccatissimo_FF_F4_RR2.opus
tune=+6
</region>

<region>
hivel=127
key=F5
lovel=87
sample=Trumpet_staccatissimo_FF_F5_RR2.opus
tune=-29
</region>

<region>
hivel=127
key=G#3
lovel=87
sample=Trumpet_staccatissimo_FF_G#3_RR2.opus
tune=+25
</region>

<region>
hivel=127
key=G#4
lovel=87
sample=Trumpet_staccatissimo_FF_G#4_RR2.opus
tune=-2
</region>

<region>
hivel=127
key=G#5
lovel=87
sample=Trumpet_staccatissimo_FF_G#5_RR2.opus
tune=-24
</region>

<region>
hivel=127
key=G3
lovel=87
sample=Trumpet_staccatissimo_FF_G3_RR2.opus
tune=+46
</region>

<region>
hivel=127
key=G4
lovel=87
sample=Trumpet_staccatissimo_FF_G4_RR2.opus
tune=-25
</region>

<region>
hivel=127
key=G5
lovel=87
sample=Trumpet_staccatissimo_FF_G5_RR2.opus
tune=+23
</region>

<region>
hivel=86
key=A#3
lovel=43
offset=1926
sample=Trumpet_staccatissimo_MF_A#3_RR2.opus
tune=+6
</region>

<region>
hivel=86
key=A#4
lovel=43
offset=17
sample=Trumpet_staccatissimo_MF_A#4_RR2.opus
tune=-13
</region>

<region>
hivel=86
key=A#5
lovel=43
sample=Trumpet_staccatissimo_MF_A#5_RR2.opus
tune=-26
</region>

<region>
hivel=86
key=A3
lovel=43
offset=250
sample=Trumpet_staccatissimo_MF_A3_RR2.opus
tune=+16
</region>

<region>
hivel=86
key=A4
lovel=43
sample=Trumpet_staccatissimo_MF_A4_RR2.opus
tune=-19
</region>

<region>
hivel=86
key=A5
lovel=43
sample=Trumpet_staccatissimo_MF_A5_RR2.opus
tune=-14
</region>

<region>
hivel=86
key=B3
lovel=43
offset=800
sample=Trumpet_staccatissimo_MF_B3_RR2.opus
tune=+11
</region>

<region>
hivel=86
key=B4
lovel=43
sample=Trumpet_staccatissimo_MF_B4_RR2.opus
tune=-4
</region>

<region>
hivel=86
key=B5
lovel=43
sample=Trumpet_staccatissimo_MF_B5_RR2.opus
tune=-13
</region>

<region>
hivel=86
key=C#4
lovel=43
sample=Trumpet_staccatissimo_MF_C#4_RR2.opus
tune=+14
</region>

<region>
hivel=86
key=C#5
lovel=43
offset=67
sample=Trumpet_staccatissimo_MF_C#5_RR2.opus
tune=+19
</region>

<region>
hikey=C4
hivel=86
lokey=C4
lovel=43
offset=108
sample=Trumpet_staccatissimo_MF_C4_RR2.opus
tune=+19
</region>

<region>
hivel=86
key=C5
lovel=43
sample=Trumpet_staccatissimo_MF_C5_RR2.opus
tune=+12
</region>

<region>
hikey=F6
hivel=86
lokey=C6
lovel=43
pitch_keycenter=C6
sample=Trumpet_staccatissimo_MF_C6_RR2.opus
tune=-4
</region>

<region>
hivel=86
key=D#4
lovel=43
sample=Trumpet_staccatissimo_MF_D#4_RR2.opus
tune=-15
</region>

<region>
hivel=86
key=D#5
lovel=43
sample=Trumpet_staccatissimo_MF_D#5_RR2.opus
tune=-15
</region>

<region>
hivel=86
key=D4
lovel=43
offset=2399
sample=Trumpet_staccatissimo_MF_D4_RR2.opus
tune=+1
</region>

<region>
hivel=86
key=D5
lovel=43
sample=Trumpet_staccatissimo_MF_D5_RR2.opus
tune=+1
</region>

<region>
hivel=86
key=E4
lovel=43
sample=Trumpet_staccatissimo_MF_E4_RR2.opus
tune=-3
</region>

<region>
hivel=86
key=E5
lovel=43
sample=Trumpet_staccatissimo_MF_E5_RR2.opus
tune=-22
</region>

<region>
hivel=86
key=F#3
lovel=43
offset=1179
sample=Trumpet_staccatissimo_MF_F#3_RR2.opus
tune=+25
</region>

<region>
hivel=86
key=F#4
lovel=43
sample=Trumpet_staccatissimo_MF_F#4_RR2.opus
tune=-4
</region>

<region>
hivel=86
key=F#5
lovel=43
sample=Trumpet_staccatissimo_MF_F#5_RR2.opus
tune=-20
</region>

<region>
hivel=86
key=F4
lovel=43
offset=98
sample=Trumpet_staccatissimo_MF_F4_RR2.opus
tune=-17
</region>

<region>
hivel=86
key=F5
lovel=43
sample=Trumpet_staccatissimo_MF_F5_RR2.opus
tune=-35
</region>

<region>
hivel=86
key=G#3
lovel=43
sample=Trumpet_staccatissimo_MF_G#3_RR2.opus
tune=+5
</region>

<region>
hivel=86
key=G#4
lovel=43
offset=20
sample=Trumpet_staccatissimo_MF_G#4_RR2.opus
tune=-17
</region>

<region>
hivel=86
key=G#5
lovel=43
sample=Trumpet_staccatissimo_MF_G#5_RR2.opus
tune=-14
</region>

<region>
hivel=86
key=G3
lovel=43
sample=Trumpet_staccatissimo_MF_G3_RR2.opus
tune=+5
</region>

<region>
hivel=86
key=G4
lovel=43
offset=45
sample=Trumpet_staccatissimo_MF_G4_RR2.opus
tune=-23
</region>

<region>
hivel=86
key=G5
lovel=43
sample=Trumpet_staccatissimo_MF_G5_RR2.opus
tune=-11
</region>

<region>
hivel=42
key=A#3
lovel=0
offset=1116
sample=Trumpet_staccatissimo_PP_A#3_RR2.opus
tune=+15
</region>

<region>
hivel=42
key=A#4
lovel=0
offset=2537
sample=Trumpet_staccatissimo_PP_A#4_RR2.opus
tune=-44
</region>

<region>
hivel=42
key=A#5
lovel=0
offset=93
sample=Trumpet_staccatissimo_PP_A#5_RR2.opus
tune=-57
</region>

<region>
hivel=42
key=A3
lovel=0
offset=3841
sample=Trumpet_staccatissimo_PP_A3_RR2.opus
tune=+27
</region>

<region>
hivel=42
key=A4
lovel=0
offset=109
sample=Trumpet_staccatissimo_PP_A4_RR2.opus
tune=-21
</region>

<region>
hivel=42
key=A5
lovel=0
sample=Trumpet_staccatissimo_PP_A5_RR2.opus
tune=-25
</region>

<region>
hivel=42
key=B3
lovel=0
offset=880
sample=Trumpet_staccatissimo_PP_B3_RR2.opus
tune=-7
</region>

<region>
hivel=42
key=B4
lovel=0
sample=Trumpet_staccatissimo_PP_B4_RR2.opus
tune=-26
</region>

<region>
hivel=42
key=B5
lovel=0
offset=24
sample=Trumpet_staccatissimo_PP_B5_RR2.opus
tune=-27
</region>

<region>
hivel=42
key=C#4
lovel=0
offset=306
sample=Trumpet_staccatissimo_PP_C#4_RR2.opus
tune=+9
</region>

<region>
hivel=42
key=C#5
lovel=0
offset=3540
sample=Trumpet_staccatissimo_PP_C#5_RR2.opus
tune=-6
</region>

<region>
hikey=C4
hivel=42
lokey=C4
lovel=0
offset=1619
sample=Trumpet_staccatissimo_PP_C4_RR2.opus
tune=+36
</region>

<region>
hivel=42
key=C5
lovel=0
offset=1085
sample=Trumpet_staccatissimo_PP_C5_RR2.opus
tune=-21
</region>

<region>
hikey=F6
hivel=42
lokey=C6
lovel=0
pitch_keycenter=C6
sample=Trumpet_staccatissimo_PP_C6_RR2.opus
tune=-1
</region>

<region>
hivel=42
key=D#4
lovel=0
offset=2322
sample=Trumpet_staccatissimo_PP_D#4_RR2.opus
tune=-11
</region>

<region>
hivel=42
key=D#5
lovel=0
offset=1452
sample=Trumpet_staccatissimo_PP_D#5_RR2.opus
tune=-24
</region>

<region>
hivel=42
key=D4
lovel=0
offset=3651
sample=Trumpet_staccatissimo_PP_D4_RR2.opus
tune=-8
</region>

<region>
hivel=42
key=D5
lovel=0
offset=3490
sample=Trumpet_staccatissimo_PP_D5_RR2.opus
tune=-17
</region>

<region>
hivel=42
key=E4
lovel=0
offset=1018
sample=Trumpet_staccatissimo_PP_E4_RR2.opus
tune=-10
</region>

<region>
hivel=42
key=E5
lovel=0
offset=188
sample=Trumpet_staccatissimo_PP_E5_RR2.opus
tune=-25
</region>

<region>
hivel=42
key=F#3
lovel=0
offset=1397
sample=Trumpet_staccatissimo_PP_F#3_RR2.opus
tune=+41
</region>

<region>
hivel=42
key=F#4
lovel=0
offset=1446
sample=Trumpet_staccatissimo_PP_F#4_RR2.opus
tune=-11
</region>

<region>
hivel=42
key=F#5
lovel=0
offset=103
sample=Trumpet_staccatissimo_PP_F#5_RR2.opus
tune=-23
</region>

<region>
hivel=42
key=F4
lovel=0
offset=2841
sample=Trumpet_staccatissimo_PP_F4_RR2.opus
tune=-17
</region>

<region>
hivel=42
key=F5
lovel=0
offset=706
sample=Trumpet_staccatissimo_PP_F5_RR2.opus
tune=-58
</region>

<region>
hivel=42
key=G#3
lovel=0
offset=2472
sample=Trumpet_staccatissimo_PP_G#3_RR2.opus
tune=-17
</region>

<region>
hivel=42
key=G#4
lovel=0
offset=1275
sample=Trumpet_staccatissimo_PP_G#4_RR2.opus
tune=-101
</region>

<region>
hivel=42
key=G#5
lovel=0
sample=Trumpet_staccatissimo_PP_G#5_RR2.opus
tune=-26
</region>

<region>
hivel=42
key=G3
lovel=0
sample=Trumpet_staccatissimo_PP_G3_RR2.opus
tune=+42
</region>

<region>
hivel=42
key=G4
lovel=0
offset=600
sample=Trumpet_staccatissimo_PP_G4_RR2.opus
tune=-41
</region>

<region>
hivel=42
key=G5
lovel=0
sample=Trumpet_staccatissimo_PP_G5_RR2.opus
tune=-24
</region>
</group>

<group>
group_label=RR3
seq_length=4
seq_position=3

<region>
hivel=127
key=A#3
lovel=87
offset=368
sample=Trumpet_staccatissimo_FF_A#3_RR3.opus
tune=+48
</region>

<region>
hivel=127
key=A#4
lovel=87
offset=57
sample=Trumpet_staccatissimo_FF_A#4_RR3.opus
tune=-30
</region>

<region>
hivel=127
key=A#5
lovel=87
sample=Trumpet_staccatissimo_FF_A#5_RR3.opus
tune=-48
</region>

<region>
hivel=127
key=A3
lovel=87
offset=189
sample=Trumpet_staccatissimo_FF_A3_RR3.opus
tune=+47
</region>

<region>
hivel=127
key=A4
lovel=87
offset=398
sample=Trumpet_staccatissimo_FF_A4_RR3.opus
tune=-39
</region>

<region>
hivel=127
key=A5
lovel=87
sample=Trumpet_staccatissimo_FF_A5_RR3.opus
tune=-38
</region>

<region>
hivel=127
key=B3
lovel=87
offset=89
sample=Trumpet_staccatissimo_FF_B3_RR3.opus
tune=+20
</region>

<region>
hivel=127
key=B4
lovel=87
offset=190
sample=Trumpet_staccatissimo_FF_B4_RR3.opus
tune=+12
</region>

<region>
hivel=127
key=B5
lovel=87
sample=Trumpet_staccatissimo_FF_B5_RR3.opus
tune=-28
</region>

<region>
hivel=127
key=C#4
lovel=87
sample=Trumpet_staccatissimo_FF_C#4_RR3.opus
tune=+22
</region>

<region>
hivel=127
key=C#5
lovel=87
sample=Trumpet_staccatissimo_FF_C#5_RR3.opus
tune=+1
</region>

<region>
hikey=C4
hivel=127
lokey=C4
lovel=87
offset=65
sample=Trumpet_staccatissimo_FF_C4_RR3.opus
</region>

<region>
hivel=127
key=C5
lovel=87
sample=Trumpet_staccatissimo_FF_C5_RR3.opus
tune=-7
</region>

<region>
hikey=F6
hivel=127
lokey=C6
lovel=87
pitch_keycenter=C6
sample=Trumpet_staccatissimo_FF_C6_RR3.opus
tune=-21
</region>

<region>
hivel=127
key=D#4
lovel=87
offset=272
sample=Trumpet_staccatissimo_FF_D#4_RR3.opus
tune=-2
</region>

<region>
hivel=127
key=D#5
lovel=87
offset=59
sample=Trumpet_staccatissimo_FF_D#5_RR3.opus
tune=-25
</region>

<region>
hivel=127
key=D4
lovel=87
offset=21
sample=Trumpet_staccatissimo_FF_D4_RR3.opus
tune=-2
</region>

<region>
hivel=127
key=D5
lovel=87
sample=Trumpet_staccatissimo_FF_D5_RR3.opus
tune=-9
</region>

<region>
hivel=127
key=E4
lovel=87
offset=2
sample=Trumpet_staccatissimo_FF_E4_RR3.opus
tune=+9
</region>

<region>
hivel=127
key=E5
lovel=87
offset=66
sample=Trumpet_staccatissimo_FF_E5_RR3.opus
tune=-19
</region>

<region>
hivel=127
key=F#3
lovel=87
offset=331
sample=Trumpet_staccatissimo_FF_F#3_RR3.opus
tune=+48
</region>

<region>
hivel=127
key=F#4
lovel=87
sample=Trumpet_staccatissimo_FF_F#4_RR3.opus
tune=-3
</region>

<region>
hivel=127
key=F#5
lovel=87
offset=33
sample=Trumpet_staccatissimo_FF_F#5_RR3.opus
tune=-28
</region>

<region>
hivel=127
key=F4
lovel=87
offset=157
sample=Trumpet_staccatissimo_FF_F4_RR3.opus
tune=+9
</region>

<region>
hivel=127
key=F5
lovel=87
sample=Trumpet_staccatissimo_FF_F5_RR3.opus
tune=-28
</region>

<region>
hivel=127
key=G#3
lovel=87
offset=471
sample=Trumpet_staccatissimo_FF_G#3_RR3.opus
tune=+26
</region>

<region>
hivel=127
key=G#4
lovel=87
sample=Trumpet_staccatissimo_FF_G#4_RR3.opus
tune=+13
</region>

<region>
hivel=127
key=G#5
lovel=87
sample=Trumpet_staccatissimo_FF_G#5_RR3.opus
tune=-13
</region>

<region>
hivel=127
key=G3
lovel=87
offset=451
sample=Trumpet_staccatissimo_FF_G3_RR3.opus
tune=+60
</region>

<region>
hivel=127
key=G4
lovel=87
sample=Trumpet_staccatissimo_FF_G4_RR3.opus
tune=-9
</region>

<region>
hivel=127
key=G5
lovel=87
sample=Trumpet_staccatissimo_FF_G5_RR3.opus
</region>

<region>
hivel=86
key=A#3
lovel=43
offset=2403
sample=Trumpet_staccatissimo_MF_A#3_RR3.opus
tune=+7
</region>

<region>
hivel=86
key=A#4
lovel=43
sample=Trumpet_staccatissimo_MF_A#4_RR3.opus
tune=-10
</region>

<region>
hivel=86
key=A#5
lovel=43
sample=Trumpet_staccatissimo_MF_A#5_RR3.opus
tune=-27
</region>

<region>
hivel=86
key=A3
lovel=43
offset=115
sample=Trumpet_staccatissimo_MF_A3_RR3.opus
tune=+9
</region>

<region>
hivel=86
key=A4
lovel=43
sample=Trumpet_staccatissimo_MF_A4_RR3.opus
tune=-7
</region>

<region>
hivel=86
key=A5
lovel=43
sample=Trumpet_staccatissimo_MF_A5_RR3.opus
tune=-17
</region>

<region>
hivel=86
key=B3
lovel=43
offset=2782
sample=Trumpet_staccatissimo_MF_B3_RR3.opus
</region>

<region>
hivel=86
key=B4
lovel=43
sample=Trumpet_staccatissimo_MF_B4_RR3.opus
tune=-12
</region>

<region>
hivel=86
key=B5
lovel=43
sample=Trumpet_staccatissimo_MF_B5_RR3.opus
tune=-19
</region>

<region>
hivel=86
key=C#4
lovel=43
offset=1788
sample=Trumpet_staccatissimo_MF_C#4_RR3.opus
tune=+40
</region>

<region>
hivel=86
key=C#5
lovel=43
offset=65
sample=Trumpet_staccatissimo_MF_C#5_RR3.opus
tune=+24
</region>

<region>
hikey=C4
hivel=86
lokey=C4
lovel=43
offset=65
sample=Trumpet_staccatissimo_MF_C4_RR3.opus
tune=+18
</region>

<region>
hivel=86
key=C5
lovel=43
sample=Trumpet_staccatissimo_MF_C5_RR3.opus
tune=+13
</region>

<region>
hikey=F6
hivel=86
lokey=C6
lovel=43
pitch_keycenter=C6
sample=Trumpet_staccatissimo_MF_C6_RR3.opus
tune=-6
</region>

<region>
hivel=86
key=D#4
lovel=43
sample=Trumpet_staccatissimo_MF_D#4_RR3.opus
tune=-4
</region>

<region>
hivel=86
key=D#5
lovel=43
sample=Trumpet_staccatissimo_MF_D#5_RR3.opus
tune=-13
</region>

<region>
hivel=86
key=D4
lovel=43
offset=1736
sample=Trumpet_staccatissimo_MF_D4_RR3.opus
tune=-11
</region>

<region>
hivel=86
key=D5
lovel=43
sample=Trumpet_staccatissimo_MF_D5_RR3.opus
tune=-8
</region>

<region>
hivel=86
key=E4
lovel=43
sample=Trumpet_staccatissimo_MF_E4_RR3.opus
tune=-2
</region>

<region>
hivel=86
key=E5
lovel=43
sample=Trumpet_staccatissimo_MF_E5_RR3.opus
tune=-8
</region>

<region>
hivel=86
key=F#3
lovel=43
offset=455
sample=Trumpet_staccatissimo_MF_F#3_RR3.opus
tune=+51
</region>

<region>
hivel=86
key=F#4
lovel=43
sample=Trumpet_staccatissimo_MF_F#4_RR3.opus
tune=+1
</region>

<region>
hivel=86
key=F#5
lovel=43
offset=95
sample=Trumpet_staccatissimo_MF_F#5_RR3.opus
tune=-8
</region>

<region>
hivel=86
key=F4
lovel=43
offset=74
sample=Trumpet_staccatissimo_MF_F4_RR3.opus
tune=-12
</region>

<region>
hivel=86
key=F5
lovel=43
sample=Trumpet_staccatissimo_MF_F5_RR3.opus
tune=-28
</region>

<region>
hivel=86
key=G#3
lovel=43
offset=3265
sample=Trumpet_staccatissimo_MF_G#3_RR3.opus
tune=-5
</region>

<region>
hivel=86
key=G#4
lovel=43
sample=Trumpet_staccatissimo_MF_G#4_RR3.opus
tune=-25
</region>

<region>
hivel=86
key=G#5
lovel=43
sample=Trumpet_staccatissimo_MF_G#5_RR3.opus
tune=-26
</region>

<region>
hivel=86
key=G3
lovel=43
sample=Trumpet_staccatissimo_MF_G3_RR3.opus
tune=+11
</region>

<region>
hivel=86
key=G4
lovel=43
sample=Trumpet_staccatissimo_MF_G4_RR3.opus
tune=-32
</region>

<region>
hivel=86
key=G5
lovel=43
sample=Trumpet_staccatissimo_MF_G5_RR3.opus
tune=-7
</region>

<region>
hivel=42
key=A#3
lovel=0
offset=2035
sample=Trumpet_staccatissimo_PP_A#3_RR3.opus
tune=+5
</region>

<region>
hivel=42
key=A#4
lovel=0
offset=1323
sample=Trumpet_staccatissimo_PP_A#4_RR3.opus
tune=-51
</region>

<region>
hivel=42
key=A#5
lovel=0
sample=Trumpet_staccatissimo_PP_A#5_RR3.opus
tune=-55
</region>

<region>
hivel=42
key=A3
lovel=0
offset=3220
sample=Trumpet_staccatissimo_PP_A3_RR3.opus
tune=+33
</region>

<region>
hivel=42
key=A4
lovel=0
offset=1730
sample=Trumpet_staccatissimo_PP_A4_RR3.opus
tune=-36
</region>

<region>
hivel=42
key=A5
lovel=0
sample=Trumpet_staccatissimo_PP_A5_RR3.opus
tune=-18
</region>

<region>
hivel=42
key=B3
lovel=0
offset=2109
sample=Trumpet_staccatissimo_PP_B3_RR3.opus
tune=+14
</region>

<region>
hivel=42
key=B4
lovel=0
offset=2468
sample=Trumpet_staccatissimo_PP_B4_RR3.opus
tune=-21
</region>

<region>
hivel=42
key=B5
lovel=0
sample=Trumpet_staccatissimo_PP_B5_RR3.opus
tune=-47
</region>

<region>
hivel=42
key=C#4
lovel=0
offset=1917
sample=Trumpet_staccatissimo_PP_C#4_RR3.opus
tune=+21
</region>

<region>
hivel=42
key=C#5
lovel=0
offset=330
sample=Trumpet_staccatissimo_PP_C#5_RR3.opus
tune=+8
</region>

<region>
hikey=C4
hivel=42
lokey=C4
lovel=0
offset=523
sample=Trumpet_staccatissimo_PP_C4_RR3.opus
tune=+34
</region>

<region>
hivel=42
key=C5
lovel=0
offset=1254
sample=Trumpet_staccatissimo_PP_C5_RR3.opus
tune=-24
</region>

<region>
hikey=F6
hivel=42
lokey=C6
lovel=0
pitch_keycenter=C6
sample=Trumpet_staccatissimo_PP_C6_RR3.opus
tune=-7
</region>

<region>
hivel=42
key=D#4
lovel=0
offset=791
sample=Trumpet_staccatissimo_PP_D#4_RR3.opus
tune=-14
</region>

<region>
hivel=42
key=D#5
lovel=0
offset=133
sample=Trumpet_staccatissimo_PP_D#5_RR3.opus
tune=-13
</region>

<region>
hivel=42
key=D4
lovel=0
offset=2918
sample=Trumpet_staccatissimo_PP_D4_RR3.opus
tune=-12
</region>

<region>
hivel=42
key=D5
lovel=0
offset=3012
sample=Trumpet_staccatissimo_PP_D5_RR3.opus
tune=-17
</region>

<region>
hivel=42
key=E4
lovel=0
offset=3619
sample=Trumpet_staccatissimo_PP_E4_RR3.opus
tune=-11
</region>

<region>
hivel=42
key=E5
lovel=0
offset=168
sample=Trumpet_staccatissimo_PP_E5_RR3.opus
tune=-19
</region>

<region>
hivel=42
key=F#3
lovel=0
offset=2957
sample=Trumpet_staccatissimo_PP_F#3_RR3.opus
tune=+10
</region>

<region>
hivel=42
key=F#4
lovel=0
offset=3760
sample=Trumpet_staccatissimo_PP_F#4_RR3.opus
tune=-20
</region>

<region>
hivel=42
key=F#5
lovel=0
offset=37
sample=Trumpet_staccatissimo_PP_F#5_RR3.opus
tune=-17
</region>

<region>
hivel=42
key=F4
lovel=0
offset=3097
sample=Trumpet_staccatissimo_PP_F4_RR3.opus
tune=-7
</region>

<region>
hivel=42
key=F5
lovel=0
sample=Trumpet_staccatissimo_PP_F5_RR3.opus
tune=-42
</region>

<region>
hivel=42
key=G#3
lovel=0
offset=869
sample=Trumpet_staccatissimo_PP_G#3_RR3.opus
tune=+34
</region>

<region>
hivel=42
key=G#4
lovel=0
sample=Trumpet_staccatissimo_PP_G#4_RR3.opus
tune=-23
</region>

<region>
hivel=42
key=G#5
lovel=0
sample=Trumpet_staccatissimo_PP_G#5_RR3.opus
tune=-30
</region>

<region>
hivel=42
key=G3
lovel=0
offset=16
sample=Trumpet_staccatissimo_PP_G3_RR3.opus
tune=-6
</region>

<region>
hivel=42
key=G4
lovel=0
offset=353
sample=Trumpet_staccatissimo_PP_G4_RR3.opus
tune=-42
</region>

<region>
hivel=42
key=G5
lovel=0
sample=Trumpet_staccatissimo_PP_G5_RR3.opus
tune=-18
</region>
</group>

<group>
group_label=RR4
seq_length=4
seq_position=4

<region>
hivel=127
key=A#3
lovel=87
offset=141
sample=Trumpet_staccatissimo_FF_A#3_RR4.opus
tune=+43
</region>

<region>
hivel=127
key=A#4
lovel=87
offset=59
sample=Trumpet_staccatissimo_FF_A#4_RR4.opus
tune=-29
</region>

<region>
hivel=127
key=A#5
lovel=87
sample=Trumpet_staccatissimo_FF_A#5_RR4.opus
tune=-61
</region>

<region>
hivel=127
key=A3
lovel=87
offset=154
sample=Trumpet_staccatissimo_FF_A3_RR4.opus
tune=+37
</region>

<region>
hivel=127
key=A4
lovel=87
offset=169
sample=Trumpet_staccatissimo_FF_A4_RR4.opus
tune=-42
</region>

<region>
hivel=127
key=A5
lovel=87
sample=Trumpet_staccatissimo_FF_A5_RR4.opus
tune=-19
</region>

<region>
hivel=127
key=B3
lovel=87
offset=112
sample=Trumpet_staccatissimo_FF_B3_RR4.opus
tune=-1
</region>

<region>
hivel=127
key=B4
lovel=87
sample=Trumpet_staccatissimo_FF_B4_RR4.opus
tune=-18
</region>

<region>
hivel=127
key=B5
lovel=87
sample=Trumpet_staccatissimo_FF_B5_RR4.opus
tune=-30
</region>

<region>
hivel=127
key=C#4
lovel=87
sample=Trumpet_staccatissimo_FF_C#4_RR4.opus
tune=+22
</region>

<region>
hivel=127
key=C#5
lovel=87
sample=Trumpet_staccatissimo_FF_C#5_RR4.opus
tune=+7
</region>

<region>
hikey=C4
hivel=127
lokey=C4
lovel=87
sample=Trumpet_staccatissimo_FF_C4_RR4.opus
tune=-5
</region>

<region>
hivel=127
key=C5
lovel=87
offset=101
sample=Trumpet_staccatissimo_FF_C5_RR4.opus
tune=+1
</region>

<region>
hikey=F6
hivel=127
lokey=C6
lovel=87
pitch_keycenter=C6
sample=Trumpet_staccatissimo_FF_C6_RR4.opus
tune=+8
</region>

<region>
hivel=127
key=D#4
lovel=87
offset=18
sample=Trumpet_staccatissimo_FF_D#4_RR4.opus
tune=+5
</region>

<region>
hivel=127
key=D#5
lovel=87
offset=240
sample=Trumpet_staccatissimo_FF_D#5_RR4.opus
tune=-27
</region>

<region>
hivel=127
key=D4
lovel=87
offset=29
sample=Trumpet_staccatissimo_FF_D4_RR4.opus
tune=+20
</region>

<region>
hivel=127
key=D5
lovel=87
offset=88
sample=Trumpet_staccatissimo_FF_D5_RR4.opus
tune=-15
</region>

<region>
hivel=127
key=E4
lovel=87
sample=Trumpet_staccatissimo_FF_E4_RR4.opus
</region>

<region>
hivel=127
key=E5
lovel=87
offset=141
sample=Trumpet_staccatissimo_FF_E5_RR4.opus
tune=-15
</region>

<region>
hivel=127
key=F#3
lovel=87
offset=326
sample=Trumpet_staccatissimo_FF_F#3_RR4.opus
tune=+57
</region>

<region>
hivel=127
key=F#4
lovel=87
offset=136
sample=Trumpet_staccatissimo_FF_F#4_RR4.opus
tune=-12
</region>

<region>
hivel=127
key=F#5
lovel=87
sample=Trumpet_staccatissimo_FF_F#5_RR4.opus
tune=-11
</region>

<region>
hivel=127
key=F4
lovel=87
offset=66
sample=Trumpet_staccatissimo_FF_F4_RR4.opus
tune=+7
</region>

<region>
hivel=127
key=F5
lovel=87
sample=Trumpet_staccatissimo_FF_F5_RR4.opus
tune=-19
</region>

<region>
hivel=127
key=G#3
lovel=87
offset=165
sample=Trumpet_staccatissimo_FF_G#3_RR4.opus
tune=+31
</region>

<region>
hivel=127
key=G#4
lovel=87
sample=Trumpet_staccatissimo_FF_G#4_RR4.opus
tune=+20
</region>

<region>
hivel=127
key=G#5
lovel=87
sample=Trumpet_staccatissimo_FF_G#5_RR4.opus
tune=-11
</region>

<region>
hivel=127
key=G3
lovel=87
offset=477
sample=Trumpet_staccatissimo_FF_G3_RR4.opus
tune=+94
</region>

<region>
hivel=127
key=G4
lovel=87
offset=35
sample=Trumpet_staccatissimo_FF_G4_RR4.opus
tune=+13
</region>

<region>
hivel=127
key=G5
lovel=87
sample=Trumpet_staccatissimo_FF_G5_RR4.opus
tune=-1
</region>

<region>
hivel=86
key=A#3
lovel=43
offset=3999
sample=Trumpet_staccatissimo_MF_A#3_RR4.opus
tune=-3
</region>

<region>
hivel=86
key=A#4
lovel=43
sample=Trumpet_staccatissimo_MF_A#4_RR4.opus
tune=-20
</region>

<region>
hivel=86
key=A#5
lovel=43
sample=Trumpet_staccatissimo_MF_A#5_RR4.opus
tune=-12
</region>

<region>
hivel=86
key=A3
lovel=43
offset=983
sample=Trumpet_staccatissimo_MF_A3_RR4.opus
tune=+9
</region>

<region>
hivel=86
key=A4
lovel=43
sample=Trumpet_staccatissimo_MF_A4_RR4.opus
tune=-23
</region>

<region>
hivel=86
key=A5
lovel=43
sample=Trumpet_staccatissimo_MF_A5_RR4.opus
tune=-20
</region>

<region>
hivel=86
key=B3
lovel=43
offset=2516
sample=Trumpet_staccatissimo_MF_B3_RR4.opus
tune=-3
</region>

<region>
hivel=86
key=B4
lovel=43
sample=Trumpet_staccatissimo_MF_B4_RR4.opus
tune=-4
</region>

<region>
hivel=86
key=B5
lovel=43
sample=Trumpet_staccatissimo_MF_B5_RR4.opus
tune=+11
</region>

<region>
hivel=86
key=C#4
lovel=43
offset=331
sample=Trumpet_staccatissimo_MF_C#4_RR4.opus
tune=+18
</region>

<region>
hivel=86
key=C#5
lovel=43
sample=Trumpet_staccatissimo_MF_C#5_RR4.opus
tune=+7
</region>

<region>
hikey=C4
hivel=86
lokey=C4
lovel=43
offset=1459
sample=Trumpet_staccatissimo_MF_C4_RR4.opus
tune=+24
</region>

<region>
hivel=86
key=C5
lovel=43
sample=Trumpet_staccatissimo_MF_C5_RR4.opus
tune=+9
</region>

<region>
hikey=F6
hivel=86
lokey=C6
lovel=43
pitch_keycenter=C6
sample=Trumpet_staccatissimo_MF_C6_RR4.opus
tune=-11
</region>

<region>
hivel=86
key=D#4
lovel=43
sample=Trumpet_staccatissimo_MF_D#4_RR4.opus
tune=+7
</region>

<region>
hivel=86
key=D#5
lovel=43
sample=Trumpet_staccatissimo_MF_D#5_RR4.opus
tune=-15
</region>

<region>
hivel=86
key=D4
lovel=43
offset=2267
sample=Trumpet_staccatissimo_MF_D4_RR4.opus
tune=-1
</region>

<region>
hivel=86
key=D5
lovel=43
sample=Trumpet_staccatissimo_MF_D5_RR4.opus
tune=-6
</region>

<region>
hivel=86
key=E4
lovel=43
offset=2436
sample=Trumpet_staccatissimo_MF_E4_RR4.opus
tune=+10
</region>

<region>
hivel=86
key=E5
lovel=43
sample=Trumpet_staccatissimo_MF_E5_RR4.opus
tune=+6
</region>

<region>
hivel=86
key=F#3
lovel=43
offset=1207
sample=Trumpet_staccatissimo_MF_F#3_RR4.opus
tune=+34
</region>

<region>
hivel=86
key=F#4
lovel=43
sample=Trumpet_staccatissimo_MF_F#4_RR4.opus
tune=-4
</region>

<region>
hivel=86
key=F#5
lovel=43
offset=33
sample=Trumpet_staccatissimo_MF_F#5_RR4.opus
tune=-15
</region>

<region>
hivel=86
key=F4
lovel=43
offset=58
sample=Trumpet_staccatissimo_MF_F4_RR4.opus
tune=-26
</region>

<region>
hivel=86
key=F5
lovel=43
sample=Trumpet_staccatissimo_MF_F5_RR4.opus
tune=-29
</region>

<region>
hivel=86
key=G#3
lovel=43
sample=Trumpet_staccatissimo_MF_G#3_RR4.opus
tune=+6
</region>

<region>
hivel=86
key=G#4
lovel=43
offset=3
sample=Trumpet_staccatissimo_MF_G#4_RR4.opus
tune=-23
</region>

<region>
hivel=86
key=G#5
lovel=43
sample=Trumpet_staccatissimo_MF_G#5_RR4.opus
tune=-33
</region>

<region>
hivel=86
key=G3
lovel=43
sample=Trumpet_staccatissimo_MF_G3_RR4.opus
tune=+12
</region>

<region>
hivel=86
key=G4
lovel=43
offset=3160
sample=Trumpet_staccatissimo_MF_G4_RR4.opus
tune=-16
</region>

<region>
hivel=86
key=G5
lovel=43
offset=166
sample=Trumpet_staccatissimo_MF_G5_RR4.opus
tune=-18
</region>

<region>
hivel=42
key=A#3
lovel=0
offset=2620
sample=Trumpet_staccatissimo_PP_A#3_RR4.opus
tune=+19
</region>

<region>
hivel=42
key=A#4
lovel=0
offset=3770
sample=Trumpet_staccatissimo_PP_A#4_RR4.opus
tune=-45
</region>

<region>
hivel=42
key=A#5
lovel=0
sample=Trumpet_staccatissimo_PP_A#5_RR4.opus
tune=-49
</region>

<region>
hivel=42
key=A3
lovel=0
offset=2816
sample=Trumpet_staccatissimo_PP_A3_RR4.opus
tune=+29
</region>

<region>
hivel=42
key=A4
lovel=0
offset=2124
sample=Trumpet_staccatissimo_PP_A4_RR4.opus
tune=-28
</region>

<region>
hivel=42
key=A5
lovel=0
sample=Trumpet_staccatissimo_PP_A5_RR4.opus
tune=-25
</region>

<region>
hivel=42
key=B3
lovel=0
offset=3151
sample=Trumpet_staccatissimo_PP_B3_RR4.opus
tune=-2
</region>

<region>
hivel=42
key=B4
lovel=0
offset=2711
sample=Trumpet_staccatissimo_PP_B4_RR4.opus
tune=-31
</region>

<region>
hivel=42
key=B5
lovel=0
offset=248
sample=Trumpet_staccatissimo_PP_B5_RR4.opus
tune=-34
</region>

<region>
hivel=42
key=C#4
lovel=0
offset=2603
sample=Trumpet_staccatissimo_PP_C#4_RR4.opus
tune=+6
</region>

<region>
hivel=42
key=C#5
lovel=0
offset=3911
sample=Trumpet_staccatissimo_PP_C#5_RR4.opus
tune=-20
</region>

<region>
hikey=C4
hivel=42
lokey=C4
lovel=0
offset=2520
sample=Trumpet_staccatissimo_PP_C4_RR4.opus
tune=+31
</region>

<region>
hivel=42
key=C5
lovel=0
offset=2764
sample=Trumpet_staccatissimo_PP_C5_RR4.opus
tune=-12
</region>

<region>
hikey=F6
hivel=42
lokey=C6
lovel=0
pitch_keycenter=C6
sample=Trumpet_staccatissimo_PP_C6_RR4.opus
tune=-6
</region>

<region>
hivel=42
key=D#4
lovel=0
offset=3593
sample=Trumpet_staccatissimo_PP_D#4_RR4.opus
tune=-7
</region>

<region>
hivel=42
key=D#5
lovel=0
offset=4664
sample=Trumpet_staccatissimo_PP_D#5_RR4.opus
tune=-24
</region>

<region>
hivel=42
key=D4
lovel=0
offset=4491
sample=Trumpet_staccatissimo_PP_D4_RR4.opus
tune=-14
</region>

<region>
hivel=42
key=D5
lovel=0
offset=3985
sample=Trumpet_staccatissimo_PP_D5_RR4.opus
tune=-26
</region>

<region>
hivel=42
key=E4
lovel=0
offset=2994
sample=Trumpet_staccatissimo_PP_E4_RR4.opus
tune=-10
</region>

<region>
hivel=42
key=E5
lovel=0
offset=116
sample=Trumpet_staccatissimo_PP_E5_RR4.opus
tune=-18
</region>

<region>
hivel=42
key=F#3
lovel=0
offset=3689
sample=Trumpet_staccatissimo_PP_F#3_RR4.opus
tune=+28
</region>

<region>
hivel=42
key=F#4
lovel=0
offset=241
sample=Trumpet_staccatissimo_PP_F#4_RR4.opus
tune=+13
</region>

<region>
hivel=42
key=F#5
lovel=0
offset=26
sample=Trumpet_staccatissimo_PP_F#5_RR4.opus
tune=-12
</region>

<region>
hivel=42
key=F4
lovel=0
offset=3639
sample=Trumpet_staccatissimo_PP_F4_RR4.opus
tune=-11
</region>

<region>
hivel=42
key=F5
lovel=0
sample=Trumpet_staccatissimo_PP_F5_RR4.opus
tune=-36
</region>

<region>
hivel=42
key=G#3
lovel=0
sample=Trumpet_staccatissimo_PP_G#3_RR4.opus
tune=-37
</region>

<region>
hivel=42
key=G#4
lovel=0
offset=1807
sample=Trumpet_staccatissimo_PP_G#4_RR4.opus
tune=-13
</region>

<region>
hivel=42
key=G#5
lovel=0
sample=Trumpet_staccatissimo_PP_G#5_RR4.opus
tune=-21
</region>

<region>
hivel=42
key=G3
lovel=0
offset=646
sample=Trumpet_staccatissimo_PP_G3_RR4.opus
tune=+32
</region>

<region>
hivel=42
key=G4
lovel=0
sample=Trumpet_staccatissimo_PP_G4_RR4.opus
tune=-37
</region>

<region>
hivel=42
key=G5
lovel=0
offset=4783
sample=Trumpet_staccatissimo_PP_G5_RR4.opus
tune=-23
</region>
</group>